<svg width="332" height="160" viewBox="0 0 332 160" fill="none" xmlns="http://www.w3.org/2000/svg">
<path fill-rule="evenodd" clip-rule="evenodd" d="M239 117C239 114.239 236.761 112 234 112H97C94.2386 112 92 114.239 92 117V155C92 157.761 94.2386 160 97 160H234C236.761 160 239 157.761 239 155V117ZM234 122C234 119.239 231.761 117 229 117H102C99.2386 117 97 119.239 97 122V150C97 152.761 99.2386 155 102 155H229C231.761 155 234 152.761 234 150V122Z" fill="white"/>
<path fill-rule="evenodd" clip-rule="evenodd" d="M5 0C2.23858 0 0 2.23858 0 5V131.389C0 134.151 2.23858 136.389 5 136.389H93.4108C95.3931 136.389 97 134.782 97 132.8C97 132.144 96.824 131.529 96.5167 131H6V5H326V131H234.483C234.176 131.529 234 132.144 234 132.8C234 134.782 235.607 136.389 237.589 136.389H327C329.761 136.389 332 134.151 332 131.389V5C332 2.23857 329.761 0 327 0H5Z" fill="white"/>
<path fill-rule="evenodd" clip-rule="evenodd" d="M327 4H4V133H95V117H234V133H327V4Z" fill="white" fill-opacity="0.24"/>
<path d="M108.311 33.8C108.311 39.0667 105.744 45.2667 100.611 52.4C96.6111 58 91.2778 62.5 84.6111 65.9C78.0111 69.3 71.9111 71 66.3111 71C64.2445 71 62.5111 70.7667 61.1111 70.3C58.3111 73.9 53.8111 79.5333 47.6111 87.2C49.9445 90.5333 54.1445 93.6667 60.2111 96.6C66.3445 99.5333 71.6111 101 76.0111 101C80.4111 101 83.6778 100.4 85.8111 99.2C88.7445 97.6667 90.2111 95.4667 90.2111 92.6C90.2111 91.8667 90.1445 91.1667 90.0111 90.5C89.8778 89.8333 90.0778 89.5 90.6111 89.5C91.2111 89.5 91.7111 90 92.1111 91C92.5778 91.9333 92.8111 92.7667 92.8111 93.5C92.8111 95.8333 91.5778 98.0333 89.1111 100.1C85.9778 102.633 81.7111 103.9 76.3111 103.9C70.9111 103.9 65.3111 102.633 59.5111 100.1C53.7111 97.5667 48.9445 94.1333 45.2111 89.8C39.8778 95.1333 34.8111 97.8 30.0111 97.8C28.5445 97.8 27.2778 97.5333 26.2111 97C23.8778 95.6667 22.7111 93.1333 22.7111 89.4C22.7111 85.6667 24.2445 81.0667 27.3111 75.6C30.4445 70.1333 32.9111 67.2333 34.7111 66.9C35.9111 66.9 37.2778 68.2667 38.8111 71L45.1111 83.2C48.6445 78.5333 52.3445 73.4333 56.2111 67.9C50.7445 65.4333 48.0111 61.8667 48.0111 57.2C48.0111 53.3333 49.5778 50.2 52.7111 47.8C54.4445 46.5333 56.2778 45.9 58.2111 45.9C60.2111 45.9 61.7111 46.9333 62.7111 49C62.9111 49.4 62.9111 49.6667 62.7111 49.8C62.5778 49.8667 62.4778 49.8667 62.4111 49.8C61.0778 48.4667 59.6445 47.8 58.1111 47.8C58.0445 47.8 57.9778 47.8 57.9111 47.8C55.9778 47.8 54.2778 48.8333 52.8111 50.9C51.4111 52.9667 50.7111 54.8667 50.7111 56.6C50.7111 56.8 50.7111 57 50.7111 57.2C50.7111 60.6667 53.1111 63.6333 57.9111 66.1C58.7111 64.9667 59.9778 63.1 61.7111 60.5C63.5111 57.8333 64.9111 55.7667 65.9111 54.3C79.1778 34.8333 90.2111 25.1 99.0111 25.1C105.211 25.1 108.311 28 108.311 33.8ZM99.4111 26.8C96.0778 26.8 91.9445 29.6 87.0111 35.2C83.6111 39.1333 79.6111 44.4333 75.0111 51.1C70.4778 57.7 66.3778 63.3667 62.7111 68.1C63.5778 68.3 64.5445 68.4 65.6111 68.4C70.2778 68.4 75.6111 66.8 81.6111 63.6C87.6111 60.4 92.3445 56.3667 95.8111 51.5C101.878 43.0333 104.911 36.6 104.911 32.2C104.911 29.5333 103.744 27.8333 101.411 27.1C100.811 26.9 100.144 26.8 99.4111 26.8ZM42.6111 86.5C41.0111 84.3 39.3445 81.5 37.6111 78.1C35.8778 74.6333 34.7111 72.5667 34.1111 71.9C33.5778 71.2333 33.2111 70.9 33.0111 70.9C32.8111 70.9 32.6778 70.9 32.6111 70.9C31.4111 71.1 30.1111 73.2333 28.7111 77.3C27.3111 81.3667 26.6111 85.3667 26.6111 89.3C26.6111 93.1667 27.8111 95.1 30.2111 95.1C31.9445 95.1 34.0111 94.2 36.4111 92.4C38.8778 90.6 40.9445 88.6333 42.6111 86.5ZM103.891 80.28C103.891 81.68 102.551 84.02 99.8714 87.3C96.7114 91.18 94.0114 93.12 91.7714 93.12H90.8114C89.7714 93.12 88.9514 92.58 88.3514 91.5C87.8714 90.74 87.6314 89.9 87.6314 88.98C87.6314 86.58 89.3714 83.22 92.8514 78.9C96.3714 74.54 99.2114 72.36 101.371 72.36C103.411 72.36 104.431 73.44 104.431 75.6C104.431 76.16 104.331 76.88 104.131 77.76C104.171 77.88 104.551 77.94 105.271 77.94C105.991 77.94 107.091 77.56 108.571 76.8C108.531 77.48 106.951 78.46 103.831 79.74C103.871 79.9 103.891 80.08 103.891 80.28ZM99.9914 77.16C98.6314 77.16 96.6914 78.76 94.1714 81.96C91.6914 85.16 90.4514 87.52 90.4514 89.04C90.4514 90.56 90.9314 91.32 91.8914 91.32C93.6114 91.32 95.7914 89.76 98.4314 86.64C101.071 83.52 102.391 81.28 102.391 79.92C101.751 79.56 100.951 78.64 99.9914 77.16ZM117.346 93.3C114.346 93.3 112.846 91.64 112.846 88.32C112.846 86.64 113.286 84.8 114.166 82.8C115.046 80.8 116.006 79.12 117.046 77.76C116.846 77.8 116.586 77.82 116.266 77.82C115.306 77.82 114.506 77.14 113.866 75.78L109.426 81.54C106.946 84.62 105.506 86.16 105.106 86.16C104.906 86.16 104.806 86.08 104.806 85.92C104.806 85.52 105.146 84.94 105.826 84.18C109.306 80.14 111.766 76.72 113.206 73.92C114.126 70.44 115.286 68.7 116.686 68.7C117.606 68.7 118.066 69.1 118.066 69.9C118.066 70.7 117.566 71.72 116.566 72.96L115.126 74.88C115.126 75.72 115.746 76.14 116.986 76.14C117.706 76.14 118.506 75.88 119.386 75.36L120.946 74.4C121.026 74.36 121.226 74.34 121.546 74.34C121.866 74.34 122.206 74.54 122.566 74.94C122.926 75.34 123.046 75.7 122.926 76.02L118.786 81.24C116.226 84.52 114.946 87.12 114.946 89.04C114.946 90.92 115.826 91.86 117.586 91.86C119.426 91.86 121.686 90.88 124.366 88.92C125.966 87.76 127.426 86.46 128.746 85.02C129.986 83.58 130.666 82.86 130.786 82.86C131.066 82.86 131.206 83.02 131.206 83.34C131.206 83.62 131.026 83.96 130.666 84.36L128.746 86.52C127.666 87.64 126.466 88.72 125.146 89.76C121.986 92.12 119.386 93.3 117.346 93.3ZM148.7 75.06L149.54 74.88C149.98 74.88 150.4 75.06 150.8 75.42C151.2 75.78 151.4 76.06 151.4 76.26C151.4 76.46 150.16 78.4 147.68 82.08C145.2 85.72 143.96 88.26 143.96 89.7C143.96 89.82 143.98 89.94 144.02 90.06C144.22 90.98 144.66 91.44 145.34 91.44C147.42 91.44 151.22 88 156.74 81.12C156.86 80.96 157 80.88 157.16 80.88C157.32 80.88 157.4 81.04 157.4 81.36C157.4 81.64 157.22 82.02 156.86 82.5C151.74 89.34 147.84 92.76 145.16 92.76C144.8 92.76 144.46 92.7 144.14 92.58C142.38 91.9 141.5 90.58 141.5 88.62C141.5 87.94 141.58 87.26 141.74 86.58L138.02 90.18C135.66 92.26 133.94 93.3 132.86 93.3C131.82 93.3 130.82 92.96 129.86 92.28C128.78 91.48 128.24 90.42 128.24 89.1C128.24 86.18 130.28 82.7 134.36 78.66C138.44 74.58 142.18 72.54 145.58 72.54C146.9 72.54 147.78 73 148.22 73.92C148.34 74.24 148.44 74.52 148.52 74.76C148.6 74.96 148.66 75.06 148.7 75.06ZM130.76 89.82C130.76 91.26 131.26 91.98 132.26 91.98C134.58 91.98 137.74 89.44 141.74 84.36L148.1 75.6C147.78 75.04 147.26 74.76 146.54 74.76C144.1 74.76 140.86 76.66 136.82 80.46C132.78 84.22 130.76 87.34 130.76 89.82ZM213.588 88.9C211.988 91.3667 211.188 92.9667 211.188 93.7C211.188 94.4333 211.488 94.9667 212.088 95.3C212.088 95.3667 211.488 95.8667 210.288 96.8C209.221 97.3333 208.021 97.6 206.688 97.6C205.355 97.6 204.388 97.4333 203.788 97.1C203.188 96.8333 202.988 96.3667 203.188 95.7C204.121 92.7 207.621 86.7 213.688 77.7C219.755 68.6333 223.821 62.2333 225.888 58.5C230.355 50.4333 232.588 44 232.588 39.2C232.588 37.2 232.255 35.5 231.588 34.1C230.255 31.3667 227.088 30 222.088 30C214.288 30 206.221 33.3667 197.888 40.1C191.221 45.5 186.121 51.2333 182.588 57.3C179.055 63.3 177.288 68.6667 177.288 73.4C177.288 80.2 180.288 83.6667 186.288 83.8C186.555 83.8 186.821 83.8 187.088 83.8C194.755 83.8 200.688 81.0333 204.888 75.5C206.488 73.3 207.288 71.4333 207.288 69.9C207.288 68.3667 206.955 67.4 206.288 67C206.221 66.9333 206.188 66.8 206.188 66.6C206.188 66.4 206.388 66.3 206.788 66.3C208.521 66.3 209.388 67.4333 209.388 69.7C209.388 71.1 208.688 73 207.288 75.4C205.955 77.8 203.555 80.0667 200.088 82.2C196.621 84.3333 192.588 85.4 187.988 85.4C183.388 85.4 179.721 83.9667 176.988 81.1C174.255 78.2333 172.888 74.4667 172.888 69.8C172.888 59.2667 179.755 48.5 193.488 37.5C197.021 34.7 201.655 32.4 207.388 30.6C213.188 28.8 218.721 27.9 223.988 27.9C229.255 27.9 232.821 28.8333 234.688 30.7C236.621 32.5 237.588 34.9333 237.588 38C237.588 42.6667 235.688 48.9667 231.888 56.9C230.688 59.3667 227.988 63.8667 223.788 70.4L231.488 60.6C235.221 55.7333 241.688 48.8 250.888 39.8C252.888 37.8667 255.088 36.2667 257.488 35C259.955 33.6667 262.055 33 263.788 33C266.188 33 267.388 34.2667 267.388 36.8C267.388 39 266.321 42.3333 264.188 46.8C262.121 51.2 260.021 55.4 257.888 59.4C255.755 63.3333 254.455 65.9333 253.988 67.2C253.521 68.4 253.188 69.3667 252.988 70.1C252.788 70.8333 252.655 71.2333 252.588 71.3C252.788 70.9667 254.988 68.4333 259.188 63.7C263.388 58.9 269.588 52.9333 277.788 45.8L293.788 32.6C295.055 31.5333 296.188 31 297.188 31C298.188 31 298.988 31.8333 299.588 33.5C300.255 35.1667 300.588 36.5333 300.588 37.6C300.588 38.6 298.988 40.7333 295.788 44C287.455 52.5333 280.388 61.8667 274.588 72C268.788 82.1333 265.888 89.3667 265.888 93.7C265.888 94.8333 266.088 95.6 266.488 96C266.888 96.4667 267.521 96.6 268.388 96.4C269.255 96.2667 271.055 95.6 273.788 94.4C276.588 93.2 278.421 92.5 279.288 92.3C279.621 92.4333 279.788 92.6 279.788 92.8C279.788 93.8 278.021 95.2 274.488 97C271.021 98.8 268.388 99.7 266.588 99.7C264.855 99.7 263.788 99.4 263.388 98.8C262.188 97.0667 261.588 94.9667 261.588 92.5C261.588 86.7667 264.655 78.5333 270.788 67.8C274.721 61.0667 280.788 52 288.988 40.6C282.588 45.8 273.921 53.7667 262.988 64.5C252.055 75.2333 244.888 83.6333 241.488 89.7C239.755 92.8333 237.655 94.4 235.188 94.4C234.055 94.4 233.488 94 233.488 93.2C233.488 92.9333 234.155 91.7333 235.488 89.6C236.888 87.4667 239.921 82.4667 244.588 74.6C256.055 54.6667 261.788 42.6667 261.788 38.6C261.788 37.5333 261.421 37 260.688 37C259.621 37 258.055 37.9 255.988 39.7C248.588 45.9 240.721 54 232.388 64C224.055 74 217.788 82.3 213.588 88.9ZM304.842 75.06L305.682 74.88C306.122 74.88 306.542 75.06 306.942 75.42C307.342 75.78 307.542 76.06 307.542 76.26C307.542 76.46 306.302 78.4 303.822 82.08C301.342 85.72 300.102 88.26 300.102 89.7C300.102 89.82 300.122 89.94 300.162 90.06C300.362 90.98 300.802 91.44 301.482 91.44C303.562 91.44 307.362 88 312.882 81.12C313.002 80.96 313.142 80.88 313.302 80.88C313.462 80.88 313.542 81.04 313.542 81.36C313.542 81.64 313.362 82.02 313.002 82.5C307.882 89.34 303.982 92.76 301.302 92.76C300.942 92.76 300.602 92.7 300.282 92.58C298.522 91.9 297.642 90.58 297.642 88.62C297.642 87.94 297.722 87.26 297.882 86.58L294.162 90.18C291.802 92.26 290.082 93.3 289.002 93.3C287.962 93.3 286.962 92.96 286.002 92.28C284.922 91.48 284.382 90.42 284.382 89.1C284.382 86.18 286.422 82.7 290.502 78.66C294.582 74.58 298.322 72.54 301.722 72.54C303.042 72.54 303.922 73 304.362 73.92C304.482 74.24 304.582 74.52 304.662 74.76C304.742 74.96 304.802 75.06 304.842 75.06ZM286.902 89.82C286.902 91.26 287.402 91.98 288.402 91.98C290.722 91.98 293.882 89.44 297.882 84.36L304.242 75.6C303.922 75.04 303.402 74.76 302.682 74.76C300.242 74.76 297.002 76.66 292.962 80.46C288.922 84.22 286.902 87.34 286.902 89.82Z" fill="white"/>
</svg>
